<svg xmlns="http://www.w3.org/2000/svg" width="54.831" height="62.3" viewBox="0 0 54.831 62.3"><g id="组_20" data-name="组 20" transform="translate(-303.674 -17.749)"><g id="组_15" data-name="组 15" transform="translate(314.472 30.308)"><line id="直线_6" x2="14.119" y2="12.85" fill="none" stroke="#000" stroke-miterlimit="10" stroke-width="3" data-name="直线 6" transform="translate(4.125 6.187)"/><line id="直线_7" x1="11.105" y2="19.038" fill="none" stroke="#000" stroke-miterlimit="10" stroke-width="3" data-name="直线 7" transform="translate(18.244)"/><line id="直线_8" x1="17.927" y1=".952" fill="none" stroke="#000" stroke-miterlimit="10" stroke-width="3" data-name="直线 8" transform="translate(18.244 19.038)"/><line id="直线_9" x1="6.346" y1="18.086" fill="none" stroke="#000" stroke-miterlimit="10" stroke-width="3" data-name="直线 9" transform="translate(18.244 19.038)"/><line id="直线_10" x2="18.244" y1="8.726" fill="none" stroke="#000" stroke-miterlimit="10" stroke-width="3" data-name="直线 10" transform="translate(0 19.038)"/></g><ellipse id="椭圆_10" cx="6.092" cy="6.092" data-name="椭圆 10" rx="6.092" ry="6.092" transform="translate(303.674 53.714)"/><ellipse id="椭圆_7" cx="8.647" cy="8.647" data-name="椭圆 7" rx="8.647" ry="8.647" transform="translate(331.58 62.754)"/><ellipse id="椭圆_8" cx="7.665" cy="7.665" data-name="椭圆 8" rx="7.665" ry="7.665" transform="translate(338.459 17.749)"/><ellipse id="椭圆_9" cx="3.931" cy="3.931" data-name="椭圆 9" rx="3.931" ry="3.931" transform="translate(350.643 46.246)"/><ellipse id="椭圆_11" cx="5.896" cy="5.896" data-name="椭圆 11" rx="5.896" ry="5.896" transform="translate(308.98 27.182)"/><ellipse id="椭圆_12" cx="10.023" cy="10.023" data-name="椭圆 12" rx="10.023" ry="10.023" transform="translate(322.344 38.975)"/></g></svg>